Results
version=1
nRows=26
nColumns=24
inDegrees=yes
endheader
time	pelvis_tilt	pelvis_list	pelvis_rotation	pelvis_tx	pelvis_ty	pelvis_tz	hip_flexion_r	hip_adduction_r	hip_rotation_r	knee_angle_r	ankle_angle_r	subtalar_angle_r	mtp_angle_r	hip_flexion_l	hip_adduction_l	hip_rotation_l	knee_angle_l	ankle_angle_l	subtalar_angle_l	mtp_angle_l	lumbar_extension	lumbar_bending	lumbar_rotation
      1.37483333	     -6.53353370	    -12.60642786	    -15.40877593	      0.86001605	      0.96419653	      0.33511985	    -14.08926191	     12.26527852	      8.55633299	    -11.59693452	      6.32121026	     -5.98358283	      3.54970557	     36.11613921	    -21.30290319	    -13.27420658	     -2.32656522	      4.32011973	      0.02912443	     -1.33341438	     -6.00101873	     12.43035356	     11.77181826
      1.37900000	     -6.37616904	    -12.58358881	    -15.80836142	      0.86630920	      0.96400298	      0.33571056	    -14.50270925	     11.98281892	      8.79745224	    -11.87433278	      6.07701839	     -5.80991691	      5.22508308	     35.60462223	    -21.54181163	    -13.43703756	     -2.76870709	      4.34526138	     -0.16989507	     -0.93333839	     -6.21368240	     12.25604123	     12.15164023
      1.38316667	     -6.47093035	    -12.54247896	    -16.11072871	      0.87279105	      0.96330842	      0.33607845	    -14.64675329	     11.77972880	      8.92016245	    -12.15334806	      5.80248765	     -5.74663101	      5.37670759	     35.41839049	    -21.70660439	    -13.31983219	     -3.21314645	      4.30971103	     -0.64226460	     -0.89888371	     -6.06112451	     12.16388820	     12.18571919
      1.38733333	     -6.41482332	    -12.45255826	    -16.41039754	      0.87934083	      0.96295603	      0.33641546	    -14.91630083	     11.46704427	      8.99694267	    -12.43832606	      5.48397499	     -5.56659879	      5.99031307	     35.00900272	    -21.79696223	    -13.39940180	     -3.58795852	      4.22993231	     -0.97059962	     -0.73162644	     -6.06835001	     11.95276723	     12.60953954
      1.39150000	     -6.36577592	    -12.35521122	    -16.71548966	      0.88589688	      0.96263833	      0.33673522	    -15.15228775	     11.15045009	      9.08537903	    -12.76229706	      5.14953968	     -5.44578810	      6.66136486	     34.57943354	    -21.86859836	    -13.49570633	     -3.90327747	      4.04732672	     -1.36436321	     -0.54158260	     -6.06770360	     11.74209088	     12.85100888
      1.39566667	     -6.41348211	    -12.28465204	    -17.00505619	      0.89243596	      0.96216901	      0.33701232	    -15.26749851	     10.90215178	      9.16104419	    -13.13752969	      4.81960501	     -5.36810902	      6.89266394	     34.28723185	    -21.96469507	    -13.59138404	     -4.23785680	      3.78323331	     -1.69387715	     -0.47347088	     -5.96334747	     11.61734575	     12.84942887
      1.39983333	     -6.39376250	    -12.15356761	    -17.25826978	      0.89908172	      0.96186793	      0.33718865	    -15.41721563	     10.57117087	      9.16557468	    -13.51986753	      4.43664040	     -5.25637772	      7.19849655	     33.89063792	    -21.95468967	    -13.73996708	     -4.49089105	      3.44135893	     -2.09535619	     -0.37583787	     -5.89910148	     11.39135270	     13.05249171
      1.40400000	     -6.08869093	    -11.97660773	    -17.45291550	      0.90584532	      0.96212598	      0.33735245	    -15.85602120	     10.10520242	      9.13203391	    -13.83755957	      3.93833429	     -5.15275952	      8.62398709	     33.13267959	    -21.82300539	    -14.13801054	     -4.64105869	      3.02742206	     -2.22811029	      0.13616448	     -6.12773688	     10.99397472	     13.29997329
      1.40816667	     -6.16162741	    -11.84756005	    -17.65494135	      0.91245020	      0.96171869	      0.33730327	    -15.83444018	      9.81723011	      9.04169721	    -14.33044570	      3.54943567	     -4.94611886	      9.31002475	     32.86967627	    -21.76700364	    -14.19648321	     -4.84442770	      2.50358502	     -2.83049504	      0.40877626	     -5.96209043	     10.82637589	     13.49610290
      1.41233333	     -6.19551850	    -11.65769363	    -17.83779577	      0.91919560	      0.96145934	      0.33740249	    -15.84141082	      9.48241091	      8.98356251	    -14.80644805	      3.03646273	     -5.03857957	      9.54216675	     32.55899935	    -21.65373277	    -14.45455492	     -5.01943859	      1.91898307	     -3.12735440	      0.50246955	     -5.78298425	     10.56792146	     13.37789296
      1.41650000	     -5.96101289	    -11.43750768	    -17.93648775	      0.92593970	      0.96169862	      0.33721265	    -16.08124341	      9.01819603	      8.79650063	    -15.28369751	      2.54105042	     -4.83494752	     10.25237769	     31.92448678	    -21.38528726	    -14.73107242	     -5.06043584	      1.14021127	     -3.61337154	      0.81086365	     -5.91702726	     10.16468553	     13.53992335
      1.42066667	     -5.86569469	    -11.19650940	    -18.08135020	      0.93273482	      0.96178991	      0.33726838	    -16.15250189	      8.60057827	      8.67742067	    -15.80448599	      1.87991582	     -5.00708588	     16.81934260	     31.47467542	    -21.17472567	    -15.16552772	     -5.17317752	      0.38679519	     -3.82142764	      3.94288311	     -5.85937704	      9.79503533	     13.60073769
      1.42483333	     -5.86751015	    -10.94176853	    -18.11812039	      0.93953081	      0.96169298	      0.33703495	    -16.07595793	      8.23079351	      8.43305034	    -16.39957272	      1.28086965	     -5.07574706	     16.84831332	     31.20038773	    -20.88715660	    -15.36677511	     -5.27953698	     -0.44448032	     -4.24603901	      3.96691796	     -5.67591533	      9.46609957	     13.48569476
      1.42900000	     -5.69185616	    -10.65513506	    -18.05204382	      0.94635546	      0.96190964	      0.33655010	    -16.14581928	      7.77864358	      8.06108849	    -16.99903953	      0.67017951	     -4.98827293	     16.97888311	     30.75888162	    -20.46492744	    -15.53374417	     -5.34190654	     -1.42003157	     -4.76951120	      4.06348550	     -5.69072539	      9.03340276	     13.39048281
      1.43316667	     -5.53076338	    -10.32964128	    -17.97833664	      0.95322376	      0.96217918	      0.33612280	    -16.16510505	      7.31017275	      7.68671133	    -17.63985983	     -0.02168590	     -5.03943101	     17.19564273	     30.35006391	    -20.01280342	    -15.76098744	     -5.41313652	     -2.37862115	     -5.21223216	      4.21533765	     -5.65778703	      8.56189828	     13.25299616
      1.43733333	     -5.38548296	     -9.99392288	    -17.86885287	      0.96005849	      0.96246532	      0.33564107	    -16.12795781	      6.85561824	      7.28165080	    -18.33953966	     -0.74168371	     -5.12991682	     17.48280708	     30.00659525	    -19.54115733	    -15.94757327	     -5.53276083	     -3.33250106	     -5.62418811	      4.40239591	     -5.60810740	      8.08353410	     13.08467340
      1.44150000	     -5.35177630	     -9.64416704	    -17.79001183	      0.96685961	      0.96263763	      0.33531628	    -15.93423113	      6.44563538	      6.93555958	    -19.12037666	     -1.52933191	     -5.42372664	     17.60457228	     29.82093178	    -19.11790002	    -16.17097078	     -5.73109885	     -4.18553448	     -5.88842063	      4.47605032	     -5.42359437	      7.61621433	     12.92819495
      1.44566667	     -5.10047486	     -9.25768382	    -17.51295860	      0.97375165	      0.96313031	      0.33445756	    -15.93317931	      5.93540408	      6.31359503	    -19.89274799	     -2.29857109	     -5.40901766	     17.99683702	     29.45253961	    -18.47751588	    -16.17481334	     -5.87197444	     -5.21116527	     -6.48589173	      4.71271344	     -5.47357200	      7.06468826	     12.64114378
      1.44983333	     -4.89225170	     -8.84224993	    -17.20158427	      0.98068409	      0.96359696	      0.33362152	    -15.85704448	      5.43619554	      5.66613235	    -20.71036097	     -3.17715884	     -5.58867617	     18.65618532	     29.17316017	    -17.81881582	    -16.15369245	     -6.08300476	     -6.05424454	     -6.88197519	      5.09285155	     -5.45552850	      6.48673642	     12.31185521
      1.45400000	     -4.81072609	     -8.44981582	    -17.03184177	      0.98738906	      0.96399265	      0.33312826	    -15.58768731	      5.00215937	      5.22260886	    -21.66821143	     -4.03357152	     -5.88610558	     19.01803241	     29.03628568	    -17.31087052	    -16.24614439	     -6.39007024	     -6.91428698	     -7.27134069	      5.28797094	     -5.33555588	      5.95972381	     12.05137761
      1.45816667	     -4.60372068	     -8.00553283	    -16.60478619	      0.99433801	      0.96449644	      0.33210331	    -15.44957305	      4.50586649	      4.44159342	    -22.57762767	     -4.98404174	     -6.11675464	     19.70888900	     28.85610665	    -16.58140888	    -16.08133560	     -6.72919484	     -7.58952864	     -7.64852793	      5.64743653	     -5.31213722	      5.35450815	     11.66560212
      1.46233333	     -4.47813665	     -7.56053149	    -16.35051593	      1.00108059	      0.96504550	      0.33146105	    -15.15485615	      4.02314446	      3.89065643	    -23.62237328	     -5.95356428	     -6.44521320	     20.15715529	     28.71824483	    -15.97380418	    -16.06302625	     -7.08737772	     -8.32805256	     -8.06733917	      5.86480521	     -5.22242026	      4.76285291	     11.36631968
      1.46650000	     -4.32482439	     -7.11515846	    -15.94964000	      1.00789519	      0.96557827	      0.33050783	    -14.87830629	      3.55050494	      3.16097440	    -24.68208018	     -6.98380729	     -6.79790204	     20.66191155	     28.62903683	    -15.28716245	    -15.85182675	     -7.52981283	     -8.86284613	     -8.41195376	      6.09363741	     -5.16828331	      4.16917446	     10.97002524
      1.47066667	     -4.18100699	     -6.64121826	    -15.66007704	      1.01460627	      0.96621279	      0.32987950	    -14.53285679	      3.05041871	      2.57898107	    -25.84159674	     -7.97262270	     -7.31018400	     20.91281823	     28.51890993	    -14.65209794	    -15.79779289	     -7.99823184	     -9.37009337	     -8.69859562	      6.19477183	     -5.10603261	      3.52223717	     10.70249003
      1.47483333	     -4.02202321	     -6.18319664	    -15.13648801	      1.02144378	      0.96675502	      0.32864733	    -14.21506681	      2.57046231	      1.69816706	    -26.97923746	     -9.07912694	     -7.62557903	     21.40069228	     28.49017841	    -13.89097513	    -15.41212012	     -8.53279610	     -9.73095536	     -9.04418976	      6.37145134	     -5.06539611	      2.93035851	     10.23292932
      1.47900000	     -3.88007859	     -5.70751333	    -14.73434786	      1.02815657	      0.96738370	      0.32769032	    -13.81757947	      2.06477711	      0.97112234	    -28.21749067	    -10.18517760	     -8.09140077	     21.78229008	     28.42822231	    -13.18522049	    -15.14510912	     -9.05733640	    -10.06109716	     -9.38554107	      6.48504363	     -5.02168349	      2.30733780	      9.87624181
